<svg width="22" height="22" xmlns="http://www.w3.org/2000/svg" xmlns:sketch="http://www.bohemiancoding.com/sketch/ns"><title>Slice 1</title><g sketch:type="MSShapeGroup" stroke-width=".75" stroke="#A8A8A8" fill="none"><path d="M17.95.375c1.959 0 3.549 1.589 3.549 3.549s-1.589 3.549-3.549 3.549-3.55-1.589-3.55-3.549 1.59-3.549 3.55-3.549zm0 .633c-1.61 0-2.916 1.306-2.916 2.916 0 1.61 1.306 2.917 2.916 2.917 1.61 0 2.916-1.306 2.916-2.917 0-1.61-1.306-2.916-2.916-2.916z" id="Shape" fill="#231F20"/><path d="M14.41 16.982l-7.425-4.637c.311-.527.488-1.142.488-1.798 0-.656-.178-1.271-.488-1.798l7.421-4.636c.095 1.803 1.535 3.25 3.335 3.354v6.226c-1.779.104-3.206 1.517-3.331 3.289z" id="Shape"/><path d="M17.95 13.688c1.959 0 3.549 1.589 3.549 3.549s-1.589 3.549-3.549 3.549-3.55-1.589-3.55-3.549 1.59-3.549 3.55-3.549zm0 .632c-1.61 0-2.916 1.306-2.916 2.916 0 1.61 1.306 2.917 2.916 2.917 1.61 0 2.916-1.306 2.916-2.917 0-1.611-1.306-2.916-2.916-2.916z" id="Shape" fill="#231F20"/><path d="M3.924 6.999c1.96 0 3.549 1.589 3.549 3.549 0 1.959-1.589 3.549-3.549 3.549s-3.549-1.589-3.549-3.549 1.589-3.549 3.549-3.549zm0 .633c-1.61 0-2.916 1.306-2.916 2.916 0 1.61 1.306 2.916 2.916 2.916 1.61 0 2.916-1.306 2.916-2.916 0-1.61-1.306-2.916-2.916-2.916z" fill="#231F20"/></g></svg>