<?xml version="1.0" encoding="UTF-8" standalone="no"?>
<svg width="128px" height="128px" viewBox="0 0 128 128" version="1.1" xmlns="http://www.w3.org/2000/svg" xmlns:xlink="http://www.w3.org/1999/xlink" xmlns:sketch="http://www.bohemiancoding.com/sketch/ns">
    <title>overtab-logo-128</title>
    <description>Created with Sketch (http://www.bohemiancoding.com/sketch)</description>
    <defs></defs>
    <g id="Page-1" stroke="none" stroke-width="1" fill="none" fill-rule="evenodd" sketch:type="MSPage">
        <g id="Overtablogo-01" sketch:type="MSLayerGroup" transform="translate(0.000000, -5.000000)">
            <g id="Group">
                <path d="M129.048791,119.985625 L129.048791,128.296009 L9.99879098,128.296009 L9.99879098,119.985625 L9.95,119.985625 C12.8120791,119.985625 15.853709,117.941271 15.853709,114.895515 L15.853709,84.5418386 C15.853709,81.4950442 17.4579566,78.4337066 20.3190598,78.4337066 L112.596471,78.4337066 C115.45855,78.4337066 118.313799,81.4950442 118.313799,84.5418386 L118.313799,114.895515 C118.313799,117.94231 120.103452,119.985625 122.964555,119.985625 L129.048791,119.985625 L129.048791,119.985625 Z" id="Shape" fill="#71B450" sketch:type="MSShapeGroup"></path>
                <text id="OVER" fill="#2B6977" sketch:type="MSTextLayer" font-family="Oswald" font-size="56.181385" font-weight="bold" letter-spacing="-0.899999976">
                    <tspan x="5" y="66.8575632">OVER</tspan>
                </text>
                <path d="M132,119.985625 L132,128.296009 L0,128.296009 L0,119.985625 L1.13172093,119.985625 C4.13293023,119.985625 7.1627907,117.941271 7.1627907,114.895515 L7.1627907,84.5418386 C7.1627907,81.4950442 9.00465116,78.4337066 12.0027907,78.4337066 L75.6073488,78.4337066 C78.6085581,78.4337066 81.8594419,81.4950442 81.8594419,84.5418386 L81.8594419,114.895515 C81.8594419,117.94231 83.4802791,119.985625 86.4804651,119.985625 L132,119.985625 L132,119.985625 Z" id="Shape" fill="#2B6977" sketch:type="MSShapeGroup"></path>
                <rect id="Rectangle-1" fill="#2B6977" sketch:type="MSShapeGroup" x="0" y="122.65122" width="128" height="10.3487798"></rect>
                <text id="tab" fill="#FFFFFF" sketch:type="MSTextLayer" font-family="Open Sans" font-size="34.8198108" font-style="italic" font-weight="bold" letter-spacing="-3.09999895">
                    <tspan x="16.4746" y="110.791646">tab</tspan>
                </text>
                <g transform="translate(89.000000, 90.604881)" sketch:type="MSShapeGroup">
                    <ellipse id="Oval" fill="#FFFFFF" cx="10.113" cy="9.51429182" rx="10.113" ry="9.51429182"></ellipse>
                    <path d="M6.179,3.70298157 L10.058,7.35233764 L13.683,3.9428851 L15.858,5.9891211 L12.234,9.39857364 L16.131,13.0667457 L13.663,15.3895763 L9.765,11.7223451 L6.159,15.1139225 L3.985,13.0667457 L7.59,9.6751683 L3.71,6.02581223 L6.179,3.70298157 L6.179,3.70298157 Z" id="Shape" fill="#71B450"></path>
                </g>
            </g>
        </g>
    </g>
</svg>