<?xml version="1.0" encoding="UTF-8" standalone="no"?>
<svg width="15px" height="15px" viewBox="0 0 15 15" version="1.1" xmlns="http://www.w3.org/2000/svg" xmlns:xlink="http://www.w3.org/1999/xlink" xmlns:sketch="http://www.bohemiancoding.com/sketch/ns">
    <title>Slice 1</title>
    <description>Created with Sketch (http://www.bohemiancoding.com/sketch)</description>
    <defs></defs>
    <g id="Page 1" stroke="none" stroke-width="1" fill="none" fill-rule="evenodd">
        <g id="Slice 1">
            <g id="Page 1">
                <g id="Capa_1">
                    <path d="M7.5,0 C3.358,0 0,3.357 0,7.5 C0,11.641 3.358,15 7.5,15 C11.643,15 15,11.641 15,7.5 C15,3.357 11.643,0 7.5,0 L7.5,0 L7.5,0 Z M7.5,0" id="Path" fill="#050405"></path>
                    <path d="M10.329,11.742 L7.5,8.914 L4.672,11.742 L3.258,10.328 L6.086,7.499 L3.258,4.671 L4.672,3.257 L7.5,6.085 L10.328,3.258 L11.742,4.672 L8.914,7.499 L11.743,10.328 L10.329,11.742 L10.329,11.742 Z M10.329,11.742" id="Shape" fill="#A5A5A5"></path>
                </g>
            </g>
        </g>
    </g>
</svg>