<?xml version="1.0" encoding="UTF-8" standalone="no"?>
<svg width="22px" height="22px" viewBox="0 0 22 22" version="1.1" xmlns="http://www.w3.org/2000/svg" xmlns:xlink="http://www.w3.org/1999/xlink" xmlns:sketch="http://www.bohemiancoding.com/sketch/ns">
    <title>Slice 1</title>
    <description>Created with Sketch (http://www.bohemiancoding.com/sketch)</description>
    <defs></defs>
    <g id="Page-1" stroke="none" stroke-width="1" fill="none" fill-rule="evenodd" sketch:type="MSPage">
        <g id="Flaticon_10065-(1)" sketch:type="MSLayerGroup" stroke-width="0.75" stroke="#A8A8A8">
            <g id="Group" sketch:type="MSShapeGroup">
                <path d="M17.95,0.375 C19.909,0.375 21.499,1.964 21.499,3.924 C21.499,5.884 19.91,7.473 17.95,7.473 C15.99,7.473 14.4,5.884 14.4,3.924 C14.4,1.964 15.99,0.375 17.95,0.375 L17.95,0.375 L17.95,0.375 Z M17.95,1.008 C16.34,1.008 15.034,2.314 15.034,3.924 C15.034,5.534 16.34,6.841 17.95,6.841 C19.56,6.841 20.866,5.535 20.866,3.924 C20.866,2.314 19.56,1.008 17.95,1.008 L17.95,1.008 Z" id="Shape" fill="#231F20"></path>
                <path d="M14.41,16.982 L6.985,12.345 C7.296,11.818 7.473,11.203 7.473,10.547 C7.473,9.891 7.295,9.276 6.985,8.749 L14.406,4.113 C14.501,5.916 15.941,7.363 17.741,7.467 L17.741,13.693 C15.962,13.797 14.535,15.21 14.41,16.982 L14.41,16.982 Z" id="Shape"></path>
                <path d="M17.95,13.688 C19.909,13.688 21.499,15.277 21.499,17.237 C21.499,19.197 19.91,20.786 17.95,20.786 C15.99,20.786 14.4,19.197 14.4,17.237 C14.4,15.277 15.99,13.688 17.95,13.688 L17.95,13.688 L17.95,13.688 Z M17.95,14.32 C16.34,14.32 15.034,15.626 15.034,17.236 C15.034,18.846 16.34,20.153 17.95,20.153 C19.56,20.153 20.866,18.847 20.866,17.236 C20.866,15.625 19.56,14.32 17.95,14.32 L17.95,14.32 Z" id="Shape" fill="#231F20"></path>
                <path d="M3.924,6.999 C5.884,6.999 7.473,8.588 7.473,10.548 C7.473,12.507 5.884,14.097 3.924,14.097 C1.964,14.097 0.375,12.508 0.375,10.548 C0.375,8.588 1.964,6.999 3.924,6.999 L3.924,6.999 L3.924,6.999 Z M3.924,7.632 C2.314,7.632 1.008,8.938 1.008,10.548 C1.008,12.158 2.314,13.464 3.924,13.464 C5.534,13.464 6.84,12.158 6.84,10.548 C6.84,8.938 5.534,7.632 3.924,7.632 L3.924,7.632 Z" id="Shape" fill="#231F20"></path>
            </g>
        </g>
    </g>
</svg>